<svg width="330" height="386" viewBox="0 0 330 386" fill="none" xmlns="http://www.w3.org/2000/svg">
<g clip-path="url(#clip0)">
<path d="M77.8265 157.542C90.3225 157.542 100.452 147.429 100.452 134.953C100.452 122.477 90.3225 112.363 77.8265 112.363C65.3306 112.363 55.2006 122.477 55.2006 134.953C55.2006 147.429 65.3306 157.542 77.8265 157.542Z" fill="#2F2E41"/>
<path d="M79.7271 157.585C89.9575 157.585 98.2509 149.305 98.2509 139.091C98.2509 128.877 89.9575 120.597 79.7271 120.597C69.4967 120.597 61.2032 128.877 61.2032 139.091C61.2032 149.305 69.4967 157.585 79.7271 157.585Z" fill="#A0616A"/>
<path d="M150.273 195.345C149.979 195.64 149.709 195.959 149.465 196.297L112.085 194.978L107.81 186.973L94.8661 191.836L101.055 206.745C101.555 207.949 102.433 208.959 103.556 209.623C104.68 210.287 105.989 210.568 107.287 210.426L149.586 205.789C150.569 207.06 151.916 208.003 153.449 208.49C154.981 208.978 156.626 208.989 158.164 208.52C159.703 208.052 161.062 207.127 162.061 205.869C163.06 204.611 163.651 203.078 163.757 201.476C163.862 199.874 163.477 198.277 162.651 196.899C161.825 195.521 160.599 194.427 159.135 193.762C157.672 193.096 156.039 192.892 154.456 193.175C152.873 193.459 151.414 194.217 150.273 195.349V195.345Z" fill="#A0616A"/>
<path d="M89.8869 199.035C89.4105 198.821 88.9858 198.508 88.6418 198.116C88.2978 197.724 88.0426 197.262 87.8936 196.763L82.6896 179.317C82.1242 178.12 81.8006 176.823 81.7373 175.501C81.674 174.18 81.8723 172.858 82.3208 171.613C82.7693 170.367 83.4592 169.222 84.3511 168.243C85.2431 167.264 86.3195 166.47 87.519 165.907C88.7184 165.343 90.0173 165.021 91.3415 164.959C92.6657 164.897 93.9891 165.096 95.2362 165.545C96.4832 165.993 97.6295 166.683 98.6094 167.574C99.5894 168.466 100.384 169.541 100.947 170.739L111.032 185.976C111.32 186.411 111.511 186.902 111.591 187.417C111.671 187.932 111.639 188.459 111.498 188.96C111.356 189.462 111.107 189.927 110.769 190.324C110.431 190.721 110.011 191.041 109.538 191.262L92.915 199.009C92.4421 199.23 91.927 199.346 91.4049 199.35C90.8828 199.354 90.3661 199.245 89.8899 199.032L89.8869 199.035Z" fill="#F02E4E"/>
<path d="M126.703 376.156L134.824 371.742L121.637 338.369L109.651 344.883L126.703 376.156Z" fill="#A0616A"/>
<path d="M123.188 374.634L139.181 365.942C140.52 365.214 141.988 364.757 143.504 364.597C145.019 364.436 146.551 364.575 148.013 365.006C149.475 365.436 150.837 366.15 152.022 367.106C153.207 368.062 154.193 369.242 154.921 370.578L154.921 370.579L155.102 370.909L128.916 385.141L123.188 374.634Z" fill="#2F2E41"/>
<path d="M37.3405 376.192H46.5862L50.9854 340.585H37.3344L37.3405 376.192Z" fill="#A0616A"/>
<path d="M34.9813 373.179H53.1914C56.269 373.179 59.2206 374.4 61.3967 376.572C63.5729 378.745 64.7955 381.692 64.7955 384.764V385.142H34.9821L34.9813 373.179Z" fill="#2F2E41"/>
<path d="M94.796 218.16L97.8128 254.303L131.464 355.095C131.717 355.852 131.658 356.679 131.301 357.394C130.943 358.108 130.315 358.652 129.556 358.904C129.472 358.932 129.387 358.956 129.301 358.977L118.988 361.429C118.327 361.586 117.633 361.516 117.017 361.23C116.401 360.945 115.899 360.46 115.594 359.854L72.572 274.649C72.4318 274.371 72.2089 274.144 71.934 273.998C71.6591 273.852 71.3457 273.794 71.0367 273.833C70.7278 273.872 70.4384 274.005 70.2084 274.215C69.9784 274.424 69.819 274.7 69.7521 275.004L50.8217 361.116C50.6742 361.787 50.3016 362.387 49.7657 362.817C49.2298 363.247 48.5628 363.482 47.8751 363.482H38.2771C37.8817 363.483 37.4899 363.406 37.1243 363.255C36.7586 363.105 36.4262 362.884 36.146 362.605C35.8659 362.327 35.6434 361.996 35.4914 361.631C35.3394 361.267 35.2607 360.876 35.26 360.481C35.26 360.464 35.2601 360.447 35.2604 360.429C36.1397 300.718 33.2391 232.684 56.3296 221.921L60.1006 212.133L94.796 218.16Z" fill="#3F3D56"/>
<path d="M59.0168 214.697L55.1297 191.221C54.4861 187.371 54.8236 183.421 56.1112 179.736C57.3989 176.05 59.5951 172.748 62.4975 170.133C65.3343 167.543 68.7787 165.708 72.5129 164.796C76.2471 163.885 80.1509 163.927 83.8646 164.918C84.0848 164.977 84.3058 165.038 84.5268 165.1C89.0955 166.407 93.1524 169.082 96.1496 172.764C99.1467 176.447 100.94 180.959 101.287 185.691C102.029 195.886 101.362 210.678 93.9875 223.242L93.8442 223.486L59.0168 214.697Z" fill="#F02E4E"/>
<path d="M98.1544 129.262C93.9215 132.175 88.8971 133.725 83.756 133.704C85.59 134.974 87.6778 135.831 89.8756 136.218C83.0403 137.682 75.976 137.722 69.1246 136.335C67.6016 136.091 66.1321 135.587 64.7804 134.845C64.1069 134.47 63.5201 133.957 63.0582 133.34C62.5962 132.723 62.2695 132.016 62.0993 131.265C61.6467 128.668 63.6703 126.309 65.7767 124.719C69.0013 122.322 72.7192 120.67 76.6615 119.884C80.6038 119.097 84.6719 119.195 88.5716 120.171C91.1178 120.828 93.6684 121.938 95.3224 123.98C96.9764 126.022 97.4666 129.17 95.8903 131.272L98.1544 129.262Z" fill="#2F2E41"/>
<path d="M77.5294 112.252C79.6766 103.593 71.9807 93.9785 63.0488 94.1585C53.9886 94.3415 47.3207 102.517 42.7375 110.32C38.1542 118.124 33.6004 126.974 25.1881 130.335C22.4037 131.447 19.3865 131.851 16.4069 131.513C13.4274 131.174 10.5786 130.102 8.11595 128.394C5.65333 126.685 3.65385 124.393 2.29677 121.723C0.939691 119.053 0.267435 116.089 0.34027 113.096C-0.791027 122.578 0.775451 132.838 6.9018 140.173C13.0281 147.508 24.4241 150.813 32.6199 145.884C37.2959 143.068 40.2894 138.176 42.7548 133.309C45.2203 128.443 47.4143 123.31 51.1498 119.331C54.8853 115.351 60.6617 112.71 65.8612 114.384C67.9247 115.049 69.7762 116.342 71.9083 116.738C74.0405 117.134 76.7247 116.121 77.0158 113.975L77.5294 112.252Z" fill="#2F2E41"/>
<path d="M32.8809 269.206C32.1121 268.306 31.5502 267.249 31.2347 266.109C30.9193 264.969 30.8581 263.774 31.0553 262.608C31.2525 261.442 31.7035 260.333 32.3763 259.36C33.0492 258.387 33.9276 257.573 34.9496 256.975L51.0179 185.065L67.3183 191.745L46.3991 260.327C47.2959 262.109 47.506 264.157 46.9896 266.082C46.4732 268.008 45.2662 269.678 43.5979 270.773C41.9296 271.869 39.9164 272.315 37.9406 272.026C35.9648 271.737 34.1642 270.733 32.8809 269.206V269.206Z" fill="#A0616A"/>
<path d="M44.6531 195.383C44.3962 194.928 44.2406 194.424 44.1968 193.904C44.1531 193.384 44.2223 192.861 44.3997 192.371L50.5789 175.244C51.0989 172.623 52.6404 170.316 54.8642 168.831C57.088 167.345 59.8119 166.802 62.4367 167.321C65.0616 167.84 67.3723 169.379 68.8606 171.599C70.3489 173.819 70.8928 176.539 70.3728 179.16V179.16L69.4338 197.398C69.407 197.919 69.2681 198.427 69.0267 198.89C68.7852 199.352 68.4468 199.756 68.0345 200.076C67.6223 200.396 67.1458 200.623 66.6376 200.743C66.1294 200.862 65.6014 200.871 65.0896 200.768L47.102 197.154C46.5901 197.051 46.1064 196.839 45.6839 196.533C45.2614 196.227 44.9101 195.833 44.6539 195.379L44.6531 195.383Z" fill="#F02E4E"/>
<path d="M226.472 2.75516C226.13 1.94377 225.556 1.25037 224.824 0.760703C224.091 0.271034 223.23 0.00656473 222.348 0H140.019C138.836 0.000598561 137.701 0.470201 136.864 1.30562C136.028 2.14104 135.557 3.27394 135.557 4.4554V108.438C135.557 109.62 136.028 110.753 136.864 111.588C137.701 112.424 138.836 112.893 140.019 112.894H222.348C223.531 112.892 224.665 112.422 225.502 111.587C226.338 110.752 226.809 109.62 226.811 108.438V4.4569C226.813 3.87277 226.698 3.29414 226.472 2.75516ZM225.82 108.438C225.818 109.356 225.452 110.236 224.802 110.885C224.151 111.534 223.27 111.9 222.35 111.901H140.019C139.099 111.901 138.217 111.536 137.566 110.887C136.915 110.237 136.55 109.356 136.55 108.438V4.4569C136.552 3.53882 136.918 2.65884 137.568 2.00966C138.218 1.36047 139.1 0.994974 140.019 0.993183H222.348C223.042 0.996028 223.719 1.2053 224.293 1.59426C224.867 1.98322 225.312 2.5342 225.571 3.17683C225.621 3.30467 225.665 3.43514 225.701 3.56763C225.78 3.85928 225.82 4.16005 225.82 4.46217L225.82 108.438Z" fill="#CCCCCC"/>
<path d="M209.289 24.5518H184.491C183.965 24.5518 183.46 24.3431 183.088 23.9716C182.716 23.6002 182.507 23.0964 182.507 22.5711C182.507 22.0457 182.716 21.5419 183.088 21.1705C183.46 20.799 183.965 20.5903 184.491 20.5903H209.288C209.808 20.6004 210.303 20.8136 210.666 21.1839C211.03 21.5543 211.234 22.0523 211.234 22.5711C211.234 23.0898 211.03 23.5878 210.666 23.9582C210.303 24.3285 209.808 24.5417 209.288 24.5518H209.289Z" fill="#CCCCCC"/>
<path d="M209.289 34.9505H184.491C183.965 34.9505 183.46 34.7418 183.088 34.3703C182.716 33.9989 182.507 33.4951 182.507 32.9697C182.507 32.4444 182.716 31.9406 183.088 31.5692C183.46 31.1977 183.965 30.989 184.491 30.989H209.288C209.808 30.9991 210.303 31.2123 210.666 31.5826C211.03 31.953 211.234 32.451 211.234 32.9697C211.234 33.4885 211.03 33.9865 210.666 34.3569C210.303 34.7272 209.808 34.9403 209.288 34.9505H209.289Z" fill="#CCCCCC"/>
<path d="M171.771 40.8712H153.645C153.054 40.8706 152.486 40.6356 152.068 40.2179C151.649 39.8002 151.414 39.2338 151.414 38.6431V17.2923C151.414 16.7015 151.649 16.1352 152.068 15.7174C152.486 15.2997 153.054 15.0648 153.645 15.0642H171.771C172.363 15.065 172.93 15.3 173.348 15.7177C173.766 16.1353 174.002 16.7016 174.003 17.2923V38.6431C174.002 39.2338 173.767 39.8002 173.348 40.2179C172.93 40.6356 172.363 40.8706 171.771 40.8712V40.8712Z" fill="#CCCCCC"/>
<path d="M209.117 56.2417H153.074C152.548 56.2417 152.044 56.033 151.671 55.6616C151.299 55.2901 151.09 54.7863 151.09 54.261C151.09 53.7357 151.299 53.2319 151.671 52.8604C152.044 52.4889 152.548 52.2803 153.074 52.2803H209.117C209.643 52.2803 210.147 52.4889 210.519 52.8604C210.891 53.2319 211.1 53.7357 211.1 54.261C211.1 54.7863 210.891 55.2901 210.519 55.6616C210.147 56.033 209.643 56.2417 209.117 56.2417V56.2417Z" fill="#CCCCCC"/>
<path d="M209.117 66.6433H153.074C152.548 66.6433 152.044 66.4346 151.671 66.0632C151.299 65.6917 151.09 65.1879 151.09 64.6626C151.09 64.1373 151.299 63.6335 151.671 63.262C152.044 62.8906 152.548 62.6819 153.074 62.6819H209.117C209.643 62.6819 210.147 62.8906 210.519 63.262C210.891 63.6335 211.1 64.1373 211.1 64.6626C211.1 65.1879 210.891 65.6917 210.519 66.0632C210.147 66.4346 209.643 66.6433 209.117 66.6433Z" fill="#CCCCCC"/>
<path d="M209.117 77.0384H153.074C152.548 77.0384 152.044 76.8297 151.671 76.4582C151.299 76.0868 151.09 75.583 151.09 75.0576C151.09 74.5323 151.299 74.0285 151.671 73.6571C152.044 73.2856 152.548 73.0769 153.074 73.0769H209.117C209.643 73.0769 210.147 73.2856 210.519 73.6571C210.891 74.0285 211.1 74.5323 211.1 75.0576C211.1 75.583 210.891 76.0868 210.519 76.4582C210.147 76.8297 209.643 77.0384 209.117 77.0384V77.0384Z" fill="#CCCCCC"/>
<path d="M209.117 87.4392H153.074C152.548 87.4392 152.044 87.2306 151.671 86.8591C151.299 86.4876 151.09 85.9838 151.09 85.4585C151.09 84.9332 151.299 84.4294 151.671 84.0579C152.044 83.6865 152.548 83.4778 153.074 83.4778H209.117C209.643 83.4778 210.147 83.6865 210.519 84.0579C210.891 84.4294 211.1 84.9332 211.1 85.4585C211.1 85.9838 210.891 86.4876 210.519 86.8591C210.147 87.2306 209.643 87.4392 209.117 87.4392V87.4392Z" fill="#CCCCCC"/>
<path d="M209.117 97.835H153.074C152.548 97.835 152.044 97.6263 151.671 97.2549C151.299 96.8834 151.09 96.3796 151.09 95.8543C151.09 95.329 151.299 94.8251 151.671 94.4537C152.044 94.0822 152.548 93.8735 153.074 93.8735H209.117C209.643 93.8735 210.147 94.0822 210.519 94.4537C210.891 94.8251 211.1 95.329 211.1 95.8543C211.1 96.3796 210.891 96.8834 210.519 97.2549C210.147 97.6263 209.643 97.835 209.117 97.835Z" fill="#CCCCCC"/>
<path d="M276.195 64.1523C275.76 63.1209 275.031 62.2395 274.1 61.6171C273.168 60.9948 272.074 60.6589 270.953 60.6509H166.327C164.823 60.6517 163.381 61.2485 162.318 62.3103C161.254 63.372 160.656 64.8118 160.656 66.3133V198.462C160.656 199.963 161.254 201.403 162.318 202.465C163.381 203.526 164.823 204.123 166.327 204.124H270.957C272.46 204.122 273.902 203.525 274.965 202.463C276.028 201.402 276.626 199.963 276.628 198.462V66.3133C276.631 65.5715 276.485 64.8368 276.199 64.1523H276.195Z" fill="#E6E6E6"/>
<path d="M267.675 196.705H169.898C168.489 196.703 167.386 195.164 167.386 193.201V70.6158C167.387 68.651 168.491 67.1123 169.898 67.1123H267.675C269.085 67.1141 270.188 68.6528 270.188 70.6158V193.201C270.187 195.166 269.083 196.705 267.675 196.705Z" fill="white"/>
<path d="M276.195 64.1523C275.76 63.1209 275.031 62.2395 274.1 61.6171C273.168 60.9948 272.074 60.6589 270.953 60.6509H166.327C164.823 60.6517 163.381 61.2485 162.318 62.3103C161.254 63.372 160.656 64.8118 160.656 66.3133V198.462C160.656 199.963 161.254 201.403 162.318 202.465C163.381 203.526 164.823 204.123 166.327 204.124H270.957C272.46 204.122 273.902 203.525 274.965 202.463C276.028 201.402 276.626 199.963 276.628 198.462V66.3133C276.631 65.5715 276.485 64.8368 276.199 64.1523H276.195ZM275.365 198.462C275.364 199.629 274.898 200.749 274.071 201.575C273.244 202.401 272.123 202.865 270.953 202.867H166.327C165.157 202.866 164.035 202.402 163.208 201.577C162.381 200.751 161.916 199.631 161.915 198.463V66.3141C161.917 65.1463 162.382 64.0268 163.209 63.2011C164.036 62.3753 165.157 61.9107 166.327 61.9091H270.957C271.838 61.9125 272.698 62.1778 273.428 62.6714C274.157 63.1649 274.723 63.8642 275.052 64.6801C275.116 64.8427 275.172 65.0086 275.218 65.1771C275.318 65.5478 275.369 65.9301 275.369 66.3141L275.365 198.462Z" fill="#3F3D56"/>
<path d="M254.361 91.8506H222.846C222.177 91.8506 221.536 91.5854 221.063 91.1133C220.59 90.6413 220.325 90.001 220.325 89.3334C220.325 88.6658 220.59 88.0255 221.063 87.5535C221.536 87.0814 222.177 86.8162 222.846 86.8162H254.361C255.029 86.8162 255.671 87.0814 256.144 87.5535C256.616 88.0255 256.882 88.6658 256.882 89.3334C256.882 90.001 256.616 90.6413 256.144 91.1133C255.671 91.5854 255.029 91.8506 254.361 91.8506V91.8506Z" fill="#3F3D56"/>
<path d="M254.361 105.065H222.846C222.177 105.065 221.536 104.8 221.063 104.328C220.59 103.856 220.325 103.216 220.325 102.548C220.325 101.881 220.59 101.24 221.063 100.768C221.536 100.296 222.177 100.031 222.846 100.031H254.361C255.029 100.031 255.671 100.296 256.144 100.768C256.616 101.24 256.882 101.881 256.882 102.548C256.882 103.216 256.616 103.856 256.144 104.328C255.671 104.8 255.029 105.065 254.361 105.065V105.065Z" fill="#3F3D56"/>
<path d="M206.676 112.59H183.645C182.893 112.589 182.172 112.291 181.64 111.76C181.108 111.229 180.809 110.509 180.808 109.758V82.6237C180.809 81.8729 181.108 81.153 181.64 80.6221C182.172 80.0912 182.893 79.7925 183.645 79.7917H206.676C207.428 79.7925 208.149 80.0912 208.681 80.6221C209.212 81.153 209.512 81.8729 209.512 82.6237V109.758C209.512 110.509 209.212 111.229 208.681 111.76C208.149 112.291 207.428 112.589 206.676 112.59Z" fill="#6C63FF"/>
<path d="M254.142 132.125H182.919C182.25 132.125 181.609 131.859 181.136 131.387C180.663 130.915 180.397 130.275 180.397 129.607C180.397 128.94 180.663 128.299 181.136 127.827C181.609 127.355 182.25 127.09 182.919 127.09H254.142C254.811 127.09 255.452 127.355 255.925 127.827C256.398 128.299 256.663 128.94 256.663 129.607C256.663 130.275 256.398 130.915 255.925 131.387C255.452 131.859 254.811 132.125 254.142 132.125V132.125Z" fill="#E6E6E6"/>
<path d="M254.142 145.339H182.919C182.25 145.341 181.608 145.078 181.134 144.607C180.66 144.136 180.392 143.497 180.39 142.829C180.389 142.162 180.652 141.521 181.124 141.047C181.595 140.574 182.236 140.307 182.905 140.305H254.142C254.811 140.305 255.452 140.57 255.925 141.042C256.398 141.514 256.663 142.155 256.663 142.822C256.663 143.49 256.398 144.13 255.925 144.602C255.452 145.074 254.811 145.339 254.142 145.339V145.339Z" fill="#E6E6E6"/>
<path d="M254.142 158.554H182.919C182.25 158.554 181.609 158.289 181.136 157.817C180.663 157.345 180.397 156.705 180.397 156.037C180.397 155.369 180.663 154.729 181.136 154.257C181.609 153.785 182.25 153.52 182.919 153.52H254.142C254.811 153.518 255.453 153.781 255.927 154.252C256.401 154.723 256.668 155.362 256.67 156.03C256.672 156.698 256.408 157.339 255.937 157.812C255.465 158.285 254.825 158.552 254.156 158.554H254.142Z" fill="#E6E6E6"/>
<path d="M254.142 171.769H182.919C182.588 171.77 182.26 171.706 181.953 171.58C181.647 171.454 181.369 171.27 181.134 171.037C180.899 170.804 180.713 170.527 180.585 170.222C180.457 169.917 180.391 169.589 180.39 169.259C180.389 168.928 180.454 168.601 180.58 168.295C180.705 167.989 180.89 167.711 181.124 167.477C181.357 167.242 181.635 167.056 181.94 166.929C182.246 166.802 182.574 166.736 182.905 166.735H254.142C254.811 166.735 255.452 167 255.925 167.472C256.398 167.944 256.663 168.584 256.663 169.252C256.663 169.919 256.398 170.56 255.925 171.032C255.452 171.504 254.811 171.769 254.142 171.769V171.769Z" fill="#E6E6E6"/>
<path d="M254.142 184.984H182.919C182.25 184.986 181.608 184.722 181.134 184.252C180.66 183.781 180.392 183.141 180.39 182.474C180.389 181.806 180.652 181.165 181.124 180.692C181.595 180.218 182.236 179.951 182.905 179.949H254.142C254.811 179.949 255.452 180.215 255.925 180.687C256.398 181.159 256.663 181.799 256.663 182.467C256.663 183.134 256.398 183.775 255.925 184.247C255.452 184.719 254.811 184.984 254.142 184.984V184.984Z" fill="#E6E6E6"/>
<path d="M289.273 91.5843C311.766 91.5843 330 73.3797 330 50.9232C330 28.4668 311.766 10.2622 289.273 10.2622C266.781 10.2622 248.547 28.4668 248.547 50.9232C248.547 73.3797 266.781 91.5843 289.273 91.5843Z" fill="#6C63FF"/>
<path d="M295.688 52.2717V29.8396H284.117V52.2717H278.715L284.308 61.9437L289.902 71.6173L295.497 61.9437L301.091 52.2702L295.688 52.2717Z" fill="white"/>
<path d="M304.413 386H17.0639C16.8638 386 16.672 385.921 16.5305 385.78C16.3891 385.638 16.3097 385.447 16.3097 385.247C16.3097 385.047 16.3891 384.856 16.5305 384.715C16.672 384.573 16.8638 384.494 17.0639 384.494H304.413C304.613 384.494 304.805 384.573 304.946 384.715C305.088 384.856 305.167 385.047 305.167 385.247C305.167 385.447 305.088 385.638 304.946 385.78C304.805 385.921 304.613 386 304.413 386Z" fill="#E6E6E6"/>
<path d="M279.863 379.304C272.623 384.511 263.241 384.772 254.173 384.133C252.907 384.044 251.649 383.939 250.402 383.826H250.377C250.318 383.82 250.257 383.815 250.2 383.811L249.431 383.736L249.491 383.85L249.68 384.206C249.612 384.087 249.544 383.97 249.476 383.851C249.456 383.816 249.434 383.78 249.414 383.744C247.065 379.662 244.738 375.431 244.141 370.77C243.526 365.932 245.253 360.454 249.517 358.077C250.076 357.766 250.669 357.518 251.283 357.339C251.538 357.263 251.796 357.198 252.058 357.143C253.658 356.788 255.323 356.865 256.883 357.366C258.443 357.867 259.841 358.774 260.933 359.993C262.026 361.212 262.773 362.7 263.099 364.303C263.424 365.907 263.316 367.568 262.785 369.115C266.401 365.414 265.727 359.409 264.479 354.391C263.232 349.372 261.717 343.788 264.258 339.281C264.978 338.072 265.946 337.029 267.098 336.22C268.25 335.411 269.561 334.855 270.944 334.588C271.029 334.57 271.115 334.551 271.201 334.535C274.523 333.864 277.976 334.468 280.872 336.227C286.203 339.582 288.942 345.941 289.83 352.171C291.263 362.195 288.094 373.385 279.863 379.304Z" fill="#F2F2F2"/>
</g>
<defs>
<clipPath id="clip0">
<rect width="330" height="386" fill="white"/>
</clipPath>
</defs>
</svg>
