<svg width="449" height="363" viewBox="0 0 449 363" fill="none" xmlns="http://www.w3.org/2000/svg">
<g clip-path="url(#clip0)">
<path d="M175.013 360.231L449 222.133L336.915 0L52.9992 129.841L175.013 360.231Z" fill="#F2F2F2"/>
<path opacity="0.4" d="M367.211 282.264C376.469 282.264 383.974 274.763 383.974 265.51C383.974 256.257 376.469 248.756 367.211 248.756C357.952 248.756 350.447 256.257 350.447 265.51C350.447 274.763 357.952 282.264 367.211 282.264Z" fill="#6C63FF"/>
<path opacity="0.4" d="M336.186 285.265C342.68 285.265 347.945 280.003 347.945 273.512C347.945 267.021 342.68 261.759 336.186 261.759C329.691 261.759 324.427 267.021 324.427 273.512C324.427 280.003 329.691 285.265 336.186 285.265Z" fill="#6C63FF"/>
<path d="M93.3096 269.193L47.7798 242.921L21.4932 288.426L67.023 314.698L93.3096 269.193Z" fill="#F2F2F2"/>
<path d="M317.049 170.503C314.715 170.503 312.433 169.811 310.492 168.515C308.551 167.219 307.039 165.377 306.145 163.222C305.252 161.066 305.018 158.694 305.474 156.406C305.929 154.118 307.053 152.016 308.704 150.367C310.354 148.717 312.457 147.594 314.747 147.139C317.036 146.683 319.409 146.917 321.566 147.81C323.722 148.703 325.565 150.214 326.862 152.154C328.159 154.094 328.851 156.375 328.851 158.708C328.848 161.835 327.603 164.833 325.391 167.044C323.178 169.256 320.178 170.5 317.049 170.503V170.503ZM317.049 147.984C314.927 147.984 312.853 148.613 311.088 149.791C309.324 150.97 307.949 152.644 307.137 154.604C306.324 156.563 306.112 158.719 306.526 160.8C306.94 162.88 307.962 164.79 309.462 166.29C310.963 167.79 312.875 168.811 314.956 169.225C317.037 169.639 319.194 169.426 321.155 168.615C323.115 167.803 324.791 166.429 325.97 164.665C327.149 162.902 327.778 160.828 327.778 158.708C327.775 155.865 326.644 153.139 324.632 151.128C322.621 149.118 319.894 147.987 317.049 147.984V147.984Z" fill="#3F3D56"/>
<path d="M114.803 136.725C112.469 136.725 110.187 136.033 108.246 134.737C106.305 133.441 104.792 131.598 103.899 129.443C103.006 127.288 102.772 124.916 103.227 122.628C103.683 120.34 104.807 118.238 106.457 116.588C108.108 114.939 110.211 113.815 112.5 113.36C114.79 112.905 117.163 113.138 119.319 114.031C121.476 114.924 123.319 116.436 124.616 118.376C125.913 120.315 126.605 122.596 126.605 124.929C126.602 128.056 125.357 131.055 123.144 133.266C120.932 135.477 117.932 136.721 114.803 136.725V136.725ZM114.803 114.206C112.681 114.206 110.606 114.835 108.842 116.013C107.078 117.191 105.702 118.866 104.89 120.825C104.078 122.785 103.866 124.941 104.28 127.021C104.694 129.101 105.716 131.012 107.216 132.512C108.717 134.011 110.628 135.033 112.71 135.446C114.791 135.86 116.948 135.648 118.909 134.836C120.869 134.024 122.545 132.65 123.724 130.887C124.903 129.123 125.532 127.05 125.532 124.929C125.529 122.086 124.398 119.36 122.386 117.35C120.375 115.34 117.647 114.209 114.803 114.206V114.206Z" fill="#3F3D56"/>
<path d="M68.1307 323.848C65.7964 323.848 63.5146 323.156 61.5737 321.86C59.6329 320.563 58.1202 318.721 57.2269 316.566C56.3336 314.41 56.0999 312.039 56.5553 309.751C57.0107 307.462 58.1347 305.361 59.7853 303.711C61.4359 302.061 63.5388 300.938 65.8282 300.483C68.1176 300.028 70.4906 300.261 72.6472 301.154C74.8037 302.047 76.647 303.559 77.9438 305.498C79.2407 307.438 79.9328 309.719 79.9328 312.052C79.9293 315.179 78.6847 318.177 76.4722 320.389C74.2596 322.6 71.2597 323.844 68.1307 323.848V323.848ZM68.1307 301.328C66.0086 301.328 63.9342 301.957 62.1698 303.136C60.4054 304.314 59.0302 305.989 58.2182 307.948C57.4061 309.908 57.1936 312.064 57.6076 314.144C58.0216 316.224 59.0435 318.135 60.544 319.634C62.0445 321.134 63.9562 322.155 66.0375 322.569C68.1188 322.983 70.2761 322.771 72.2366 321.959C74.1971 321.147 75.8728 319.773 77.0517 318.009C78.2307 316.246 78.8599 314.173 78.8599 312.052C78.8568 309.209 77.7253 306.483 75.7139 304.473C73.7025 302.462 70.9753 301.332 68.1307 301.328V301.328Z" fill="#3F3D56"/>
<path d="M176.662 131.983C183.361 124.465 185.116 115.097 180.58 111.06C176.044 107.022 166.936 109.845 160.236 117.363C153.537 124.882 151.783 134.249 156.318 138.287C160.854 142.324 169.962 139.502 176.662 131.983Z" fill="#2F2E41"/>
<path d="M203.051 206.171C229.42 206.171 250.796 184.806 250.796 158.452C250.796 132.097 229.42 110.733 203.051 110.733C176.682 110.733 155.306 132.097 155.306 158.452C155.306 184.806 176.682 206.171 203.051 206.171Z" fill="#2F2E41"/>
<path d="M63.524 137.421L19.1455 141.05C17.399 141.193 15.7612 141.955 14.5278 143.199C13.2945 144.443 12.547 146.087 12.4204 147.834L10.7634 170.689C10.6904 171.695 10.8257 172.705 11.1607 173.656C11.4957 174.607 12.0233 175.479 12.7105 176.218C13.3977 176.956 14.2299 177.545 15.1549 177.948C16.08 178.35 17.0782 178.558 18.0873 178.558H38.0888V179.631H46.1357V178.558H50.4274V179.631H58.4744V178.558H62.7639C64.6463 178.558 66.4568 177.836 67.8215 176.54C69.1862 175.244 70.0009 173.474 70.0974 171.595L71.4562 145.111C71.5098 144.067 71.3394 143.023 70.9564 142.05C70.5734 141.076 69.9867 140.196 69.2356 139.468C68.4845 138.74 67.5863 138.18 66.6012 137.827C65.6161 137.474 64.567 137.336 63.524 137.421Z" fill="#2F2E41"/>
<path d="M91.735 209.656L28.969 180.167L17.7033 197.86C17.7033 197.86 50.3404 218.684 52.0368 220.379C54.4509 222.792 80.4693 239.681 90.6621 237.001C100.855 234.32 96.0267 212.337 91.735 209.656Z" fill="#9F616A"/>
<path d="M134.652 344.771L126.605 363H209.907L203.856 343.698L134.652 344.771Z" fill="#2F2E41"/>
<path d="M185.616 196.788C185.616 196.788 188.835 214.481 185.616 216.626C182.397 218.771 207.074 245.043 207.074 245.043L217.267 235.928L220.486 215.018C220.486 215.018 210.83 201.613 215.121 189.818C219.413 178.022 185.616 196.788 185.616 196.788Z" fill="#9F616A"/>
<path d="M195.272 202.15C214.234 202.15 229.606 186.787 229.606 167.835C229.606 148.884 214.234 133.52 195.272 133.52C176.31 133.52 160.939 148.884 160.939 167.835C160.939 186.787 176.31 202.15 195.272 202.15Z" fill="#9F616A"/>
<path d="M204.392 232.711C204.392 232.711 190.98 212.337 183.47 210.728C175.96 209.12 168.986 210.192 164.694 210.728C160.402 211.264 145.918 205.903 137.334 209.656C128.751 213.409 137.334 257.375 137.334 257.375C137.334 257.375 127.678 313.673 131.97 328.149C136.261 342.626 133.043 345.306 130.897 346.915C128.751 348.523 179.715 363 179.715 363H227.996C227.996 363 227.996 347.451 232.825 343.698C237.653 339.945 237.116 260.592 237.116 260.592L253.21 229.494C253.21 229.494 250.528 217.698 239.262 217.162C227.996 216.626 217.94 210.715 217.94 210.715L210.293 232.711H204.392Z" fill="#F02E4E"/>
<path d="M142.162 212.337L137.334 209.656C137.334 209.656 128.214 210.192 126.605 209.656C124.996 209.12 104.61 202.686 96.5632 206.439C88.5162 210.192 83.1516 205.367 83.1516 205.367C83.1516 205.367 109.438 227.886 77.2505 234.856C77.2505 234.856 77.787 237.537 85.8339 239.145C93.8809 240.754 95.4902 242.362 98.709 245.043C101.928 247.724 108.365 250.405 112.657 251.477C116.949 252.549 130.897 261.664 133.043 259.52C135.188 257.375 138.944 249.869 138.944 249.869L142.162 212.337Z" fill="#F02E4E"/>
<path d="M243.017 223.596L253.21 229.494C253.21 229.494 266.622 269.171 264.476 278.822C262.33 288.473 260.184 286.864 263.403 293.298C266.622 299.732 269.84 300.268 267.695 306.166C265.549 312.064 266.622 326.541 263.403 332.439C260.184 338.336 244.627 357.102 231.215 325.468C217.804 293.834 243.017 223.596 243.017 223.596Z" fill="#F02E4E"/>
<path d="M262.33 305.63C262.33 305.63 254.819 290.617 253.21 289.545C251.601 288.473 244.09 251.477 244.09 251.477C244.09 251.477 255.892 232.175 245.163 223.596C245.163 223.596 265.012 195.716 258.575 196.252C252.137 196.788 239.262 217.162 239.262 217.162C239.262 217.162 236.312 216.358 237.384 212.069C238.457 207.779 242.481 192.499 239.262 191.962C236.043 191.426 229.606 214.481 229.606 214.481C229.606 214.481 216.462 238.341 220.486 246.651C222.827 251.316 225.517 255.797 228.533 260.056L237.653 326.541C237.653 326.541 255.356 347.987 262.33 305.63Z" fill="#9F616A"/>
<path d="M60.0837 147.461C63.3428 147.461 65.9848 146.26 65.9848 144.78C65.9848 143.299 63.3428 142.099 60.0837 142.099C56.8247 142.099 54.1827 143.299 54.1827 144.78C54.1827 146.26 56.8247 147.461 60.0837 147.461Z" fill="#6C63FF"/>
<path d="M24.1408 197.86H16.6303C16.6303 197.86 0 192.498 0 180.167C0 167.835 4.82816 142.635 19.8491 143.171C34.87 143.707 20.922 176.95 20.922 176.95L30.0151 180.658L30.0419 191.962L24.1408 197.86Z" fill="#9F616A"/>
<path d="M189.639 160.597C206.527 160.597 220.218 153.635 220.218 145.048C220.218 136.46 206.527 129.499 189.639 129.499C172.751 129.499 159.061 136.46 159.061 145.048C159.061 153.635 172.751 160.597 189.639 160.597Z" fill="#2F2E41"/>
<path d="M230.947 170.248C232.428 170.248 233.629 167.607 233.629 164.35C233.629 161.092 232.428 158.452 230.947 158.452C229.465 158.452 228.265 161.092 228.265 164.35C228.265 167.607 229.465 170.248 230.947 170.248Z" fill="#9F616A"/>
<path d="M254.74 149.65C260.204 146.999 261.066 137.507 256.665 128.451C252.265 119.394 244.268 114.202 238.805 116.854C233.341 119.505 232.479 128.997 236.88 138.053C241.28 147.11 249.277 152.302 254.74 149.65Z" fill="#2F2E41"/>
</g>
<defs>
<clipPath id="clip0">
<rect width="449" height="363" fill="white"/>
</clipPath>
</defs>
</svg>
