<svg width="465" height="424" viewBox="0 0 465 424" fill="none" xmlns="http://www.w3.org/2000/svg">
<g clip-path="url(#clip0)">
<path d="M351.809 190.665C334.238 190.665 319.993 173.291 319.993 151.86C319.993 130.428 334.238 113.055 351.809 113.055C369.381 113.055 383.625 130.428 383.625 151.86C383.625 173.291 369.381 190.665 351.809 190.665Z" fill="#2F2E41"/>
<path d="M378.424 399.358L396.78 401.191C396.78 401.191 402.898 412.191 413.911 412.191C424.924 412.191 421.253 424.413 405.345 423.191C389.438 421.969 372.306 417.691 371.694 416.469C371.082 415.247 373.53 398.747 378.424 399.358Z" fill="#3F3D56"/>
<path opacity="0.1" d="M378.424 399.358L396.78 401.191C396.78 401.191 402.898 412.191 413.911 412.191C424.924 412.191 421.253 424.413 405.345 423.191C389.438 421.969 372.306 417.691 371.694 416.469C371.082 415.247 373.53 398.747 378.424 399.358Z" fill="black"/>
<path d="M404.122 292.414C404.122 292.414 383.319 295.47 375.365 305.248C367.411 315.025 372.918 267.97 372.918 267.97L375.365 246.581L391.885 247.804L405.345 275.303L404.122 292.414Z" fill="#3F3D56"/>
<path opacity="0.1" d="M404.122 292.414C404.122 292.414 383.319 295.47 375.365 305.248C367.411 315.025 372.918 267.97 372.918 267.97L375.365 246.581L391.885 247.804L405.345 275.303L404.122 292.414Z" fill="black"/>
<path d="M335.595 170.193C335.595 170.193 325.806 143.304 335.595 142.693C345.385 142.082 344.161 168.971 344.161 168.971L335.595 170.193Z" fill="#A0616A"/>
<path d="M461.941 80.0549H442.061C441.654 80.0549 441.263 80.2164 440.976 80.5038C440.688 80.7912 440.526 81.181 440.526 81.5875V90.1334C440.526 90.3346 440.566 90.5339 440.643 90.7199C440.72 90.9058 440.833 91.0748 440.976 91.2171C441.118 91.3594 441.287 91.4723 441.474 91.5493C441.66 91.6263 441.859 91.6659 442.061 91.6659H461.941V80.0549Z" fill="#6C63FF"/>
<path d="M463.381 80.0549H443.284C442.877 80.0549 442.487 80.2164 442.199 80.5038C441.912 80.7912 441.75 81.181 441.75 81.5875V90.1334C441.75 90.3346 441.79 90.5339 441.867 90.7199C441.944 90.9058 442.057 91.0748 442.199 91.2171C442.342 91.3594 442.511 91.4723 442.697 91.5493C442.883 91.6263 443.083 91.6659 443.284 91.6659H463.381C463.811 91.6659 464.222 91.4956 464.526 91.1924C464.829 90.8892 465 90.478 465 90.0492V81.6717C465 81.2429 464.829 80.8317 464.526 80.5285C464.222 80.2253 463.811 80.0549 463.381 80.0549V80.0549Z" fill="#2F2E41"/>
<path d="M446.645 86.7771C445.969 86.7771 445.421 86.2299 445.421 85.5549C445.421 84.8798 445.969 84.3326 446.645 84.3326C447.321 84.3326 447.868 84.8798 447.868 85.5549C447.868 86.2299 447.321 86.7771 446.645 86.7771Z" fill="#6C63FF"/>
<path d="M448.174 93.8049C448.174 93.8049 463.47 64.4718 464.694 78.5272C465.918 92.5827 456.74 104.194 456.74 104.194L448.174 93.8049Z" fill="#A0616A"/>
<path d="M359.144 164.137C359.144 164.137 345.691 164.999 344.467 172.332C343.243 179.665 354.257 202.276 354.257 202.276L368.941 201.054L370.776 186.387L359.144 164.137Z" fill="#3F3D56"/>
<path d="M375.977 142.693C375.977 142.693 371.082 167.749 386.99 157.36C402.898 146.971 380.872 175.693 380.872 175.693C380.872 175.693 363.74 179.971 358.234 174.471C352.727 168.971 366.493 168.054 358.845 146.36C350.624 123.038 375.977 142.693 375.977 142.693Z" fill="#A0616A"/>
<path opacity="0.1" d="M375.977 142.693C375.977 142.693 371.082 167.749 386.99 157.36C402.898 146.971 380.872 175.693 380.872 175.693C380.872 175.693 363.74 179.971 358.234 174.471C352.727 168.971 366.493 168.054 358.845 146.36C350.624 123.038 375.977 142.693 375.977 142.693Z" fill="black"/>
<path d="M430.125 228.554C430.125 228.554 416.359 328.47 412.076 334.581C407.793 340.692 393.109 395.691 393.109 395.691L377.201 390.191C378.336 383.53 378.542 376.743 377.813 370.025C376.589 359.025 386.99 329.692 386.99 329.692L402.286 239.248L430.125 228.554Z" fill="#2F2E41"/>
<path opacity="0.1" d="M430.125 228.554C430.125 228.554 416.359 328.47 412.076 334.581C407.793 340.692 393.109 395.691 393.109 395.691L377.201 390.191C378.336 383.53 378.542 376.743 377.813 370.025C376.589 359.025 386.99 329.692 386.99 329.692L402.286 239.248L430.125 228.554Z" fill="black"/>
<path d="M433.49 223.97L420.03 262.47C420.03 262.47 448.174 313.192 424.924 329.692C424.924 329.692 398.003 359.025 395.556 384.691C395.556 384.691 381.484 383.469 379.648 372.469C379.648 372.469 392.497 344.358 393.109 334.581C393.72 324.803 407.793 313.192 407.793 313.192C407.793 313.192 380.872 269.803 374.753 262.47C368.635 255.137 368.023 227.026 383.319 227.026C398.615 227.026 433.49 223.97 433.49 223.97Z" fill="#2F2E41"/>
<path d="M380.872 372.469C380.872 372.469 391.273 385.303 394.332 383.469C394.332 383.469 396.78 409.747 402.286 417.08C407.793 424.413 390.661 423.802 384.543 417.08C378.424 410.358 366.799 384.692 366.799 381.636C366.799 378.58 377.201 370.636 380.872 372.469Z" fill="#3F3D56"/>
<path d="M365.576 153.082C356.452 153.082 349.056 145.695 349.056 136.582C349.056 127.47 356.452 120.082 365.576 120.082C374.699 120.082 382.095 127.47 382.095 136.582C382.095 145.695 374.699 153.082 365.576 153.082Z" fill="#A0616A"/>
<path d="M383.319 156.138C383.319 156.138 382.707 166.526 373.53 168.971C364.352 171.415 357.01 165.304 357.01 165.304L354.563 170.193L362.516 189.749L377.201 237.415C377.201 237.415 420.641 243.526 424.313 233.137C427.984 222.748 418.194 193.415 418.194 193.415L404.122 173.249L398.615 159.804L392.497 153.082L383.319 156.138Z" fill="#F02E4E"/>
<path d="M379.648 158.582C379.648 158.582 389.132 149.11 395.25 149.11C401.368 149.11 406.569 145.138 406.569 145.138C406.569 145.138 426.76 174.471 438.997 209.915C451.234 245.359 468.365 256.359 459.799 264.915C451.234 273.47 437.773 271.637 432.266 280.803C426.76 289.97 426.76 288.748 423.089 274.692C419.418 260.637 423.701 222.137 405.957 205.637C388.214 189.137 379.648 158.582 379.648 158.582Z" fill="#3F3D56"/>
<path d="M404.734 146.971C404.734 146.971 429.207 124.971 432.266 115.805C435.326 106.638 446.951 89.527 449.398 91.9715C451.845 94.4159 465.306 99.9159 462.247 104.194C459.187 108.471 451.845 113.971 447.562 129.249C443.28 144.527 413.299 164.082 413.299 164.082L404.734 146.971Z" fill="#3F3D56"/>
<path d="M360.069 164.082C360.069 164.082 370.47 164.693 376.589 197.082C382.707 229.47 382.095 305.248 376.589 311.359C376.589 311.359 371.082 318.081 370.47 305.859C369.859 293.637 360.681 236.804 363.128 222.137C365.576 207.471 360.069 175.693 352.115 170.193C344.161 164.693 360.069 164.082 360.069 164.082Z" fill="#3F3D56"/>
<path d="M365.576 190.971C365.576 190.971 345.385 200.137 345.997 206.859C346.609 213.582 347.22 227.026 372.306 205.026L365.576 190.971Z" fill="#3F3D56"/>
<path d="M358.234 190.971C358.234 190.971 366.799 211.137 355.786 214.804C344.773 218.471 341.714 197.693 341.714 197.693C341.714 197.693 333.148 174.471 333.76 169.582C334.372 164.693 346.609 164.082 347.832 167.138C349.056 170.193 358.234 190.971 358.234 190.971Z" fill="#3F3D56"/>
<path d="M351.809 180.276C347.754 180.276 344.467 168.238 344.467 153.388C344.467 138.537 347.754 126.499 351.809 126.499C355.864 126.499 359.151 138.537 359.151 153.388C359.151 168.238 355.864 180.276 351.809 180.276Z" fill="#2F2E41"/>
<path d="M357.316 133.832C345.151 133.832 335.289 129.044 335.289 123.138C335.289 117.232 345.151 112.444 357.316 112.444C369.481 112.444 379.342 117.232 379.342 123.138C379.342 129.044 369.481 133.832 357.316 133.832Z" fill="#2F2E41"/>
<path opacity="0.1" d="M355.48 132.61C367.645 132.61 377.507 127.822 377.507 121.916C377.507 119.833 376.276 117.891 374.155 116.247C377.39 118.108 379.342 120.512 379.342 123.138C379.342 129.044 369.481 133.832 357.316 133.832C349.44 133.832 348.724 132.61 355.48 132.61Z" fill="black"/>
<path d="M327.572 346.659C325.832 347.585 323.899 348.094 321.928 348.147C319.957 348.2 318 347.795 316.212 346.963C314.424 346.132 312.854 344.897 311.626 343.356C310.397 341.815 309.544 340.01 309.133 338.084C308.722 336.157 308.765 334.162 309.257 332.254C309.75 330.347 310.68 328.58 311.973 327.093C313.266 325.606 314.887 324.439 316.709 323.685C318.531 322.93 320.503 322.608 322.47 322.745L323.073 329.271L325.357 323.282C328.57 324.27 331.26 326.493 332.834 329.46C333.391 330.499 333.798 331.611 334.042 332.764C334.623 335.468 334.306 338.287 333.138 340.794C331.971 343.302 330.017 345.361 327.572 346.659Z" fill="#57B894"/>
<path d="M323.035 423.984C323.338 418.318 317.949 414.095 312.859 411.575C307.77 409.054 301.908 406.699 299.561 401.533C296.188 394.107 301.958 386.054 306.365 379.19C309.634 374.096 312.287 368.633 314.269 362.915C315.063 360.623 315.755 358.246 315.706 355.82C315.635 352.328 314.046 349.066 312.469 345.948C307.215 335.56 301.718 325.3 295.977 315.167" stroke="#3F3D56" stroke-miterlimit="10"/>
<path d="M326.817 345.064C325.076 345.99 323.144 346.499 321.172 346.552C319.201 346.605 317.244 346.199 315.456 345.368C313.669 344.536 312.099 343.302 310.87 341.761C309.642 340.22 308.788 338.415 308.377 336.488C307.966 334.562 308.009 332.566 308.502 330.659C308.994 328.752 309.924 326.985 311.217 325.498C312.51 324.011 314.132 322.844 315.953 322.089C317.775 321.335 319.747 321.013 321.715 321.15L322.318 327.676L324.601 321.687C327.815 322.675 330.504 324.897 332.078 327.865C332.635 328.904 333.042 330.016 333.286 331.169C333.867 333.873 333.55 336.692 332.382 339.199C331.215 341.707 329.261 343.766 326.817 345.064Z" stroke="#3F3D56" stroke-miterlimit="10"/>
<path d="M308.608 311.098C307.607 309.215 306.147 307.614 304.363 306.443C302.579 305.272 300.529 304.568 298.401 304.396L298.237 310.704L295.395 304.505C292.728 304.922 290.263 306.175 288.356 308.083C286.449 309.991 285.198 312.455 284.784 315.119C284.37 317.783 284.815 320.509 286.053 322.905C287.292 325.3 289.261 327.24 291.676 328.445C294.09 329.65 296.826 330.057 299.487 329.608C302.149 329.159 304.598 327.876 306.483 325.946C308.367 324.016 309.588 321.537 309.97 318.868C310.352 316.2 309.875 313.478 308.608 311.098V311.098Z" fill="#57B894"/>
<path d="M307.6 308.971C306.599 307.088 305.139 305.487 303.355 304.316C301.572 303.144 299.521 302.44 297.394 302.268L297.229 308.577L294.387 302.378C291.72 302.795 289.256 304.048 287.348 305.956C285.441 307.864 284.19 310.327 283.776 312.991C283.363 315.656 283.807 318.382 285.046 320.777C286.284 323.173 288.253 325.113 290.668 326.318C293.083 327.523 295.818 327.93 298.48 327.481C301.141 327.032 303.591 325.749 305.475 323.819C307.359 321.888 308.581 319.41 308.963 316.741C309.345 314.072 308.868 311.351 307.6 308.971Z" stroke="#3F3D56" stroke-miterlimit="10"/>
<path d="M308.596 379.002C305.835 380.468 302.631 380.868 299.593 380.125C296.556 379.383 293.899 377.551 292.127 374.977C290.356 372.404 289.595 369.269 289.988 366.171C290.382 363.073 291.904 360.228 294.263 358.178L296.446 362.942L296.612 356.559C296.621 356.553 296.631 356.547 296.642 356.543C298.118 355.757 299.735 355.27 301.401 355.11C303.066 354.949 304.746 355.117 306.346 355.605C307.946 356.093 309.434 356.892 310.725 357.954C312.015 359.017 313.084 360.323 313.869 361.799C314.654 363.274 315.141 364.889 315.301 366.552C315.461 368.216 315.291 369.894 314.801 371.492C314.312 373.089 313.512 374.575 312.447 375.863C311.382 377.152 310.073 378.218 308.596 379.002V379.002Z" fill="#57B894"/>
<path d="M307.677 376.833C304.916 378.299 301.711 378.699 298.674 377.956C295.637 377.214 292.979 375.382 291.208 372.808C289.437 370.235 288.675 367.1 289.069 364.002C289.463 360.904 290.984 358.059 293.343 356.009L295.527 360.773L295.692 354.39C295.702 354.384 295.712 354.378 295.723 354.374C297.199 353.589 298.816 353.102 300.481 352.941C302.146 352.781 303.826 352.95 305.426 353.438C307.025 353.926 308.513 354.724 309.804 355.787C311.094 356.849 312.163 358.155 312.948 359.631C313.733 361.106 314.22 362.721 314.38 364.384C314.54 366.047 314.37 367.725 313.88 369.322C313.391 370.92 312.591 372.405 311.527 373.694C310.462 374.983 309.154 376.049 307.677 376.833V376.833Z" stroke="#3F3D56" stroke-miterlimit="10"/>
<path d="M324.686 398.059C324.588 400.973 323.491 403.766 321.576 405.968C319.662 408.171 317.048 409.649 314.173 410.154C311.297 410.66 308.335 410.163 305.783 408.746C303.231 407.329 301.244 405.079 300.156 402.373C299.067 399.666 298.944 396.669 299.806 393.882C300.668 391.096 302.463 388.69 304.89 387.069C307.317 385.448 310.228 384.709 313.135 384.977C316.043 385.245 318.77 386.503 320.859 388.541L316.438 397.78L323.478 392.213C324.344 394.037 324.758 396.042 324.686 398.059V398.059Z" fill="#57B894"/>
<path d="M323.93 396.463C323.833 399.378 322.735 402.171 320.821 404.373C318.907 406.575 316.292 408.053 313.417 408.559C310.541 409.065 307.579 408.567 305.027 407.151C302.475 405.734 300.488 403.484 299.4 400.777C298.312 398.071 298.188 395.073 299.05 392.287C299.912 389.501 301.707 387.095 304.134 385.474C306.561 383.852 309.472 383.114 312.38 383.382C315.287 383.65 318.014 384.908 320.103 386.946L315.682 396.185L322.722 390.617C323.588 392.441 324.002 394.446 323.93 396.463V396.463Z" stroke="#3F3D56" stroke-miterlimit="10"/>
<path d="M462.247 422.58H213.227" stroke="#3F3D56" stroke-miterlimit="10"/>
<path d="M69.4441 69.3606H251.773V189.137H69.4441V69.3606Z" fill="#F2F2F2"/>
<path d="M0.305954 0.305542H295.826V233.137H0.305954V0.305542Z" stroke="#3F3D56" stroke-miterlimit="10"/>
<path d="M295.52 13.7499H1.25766e-05" stroke="#3F3D56" stroke-miterlimit="10"/>
<path d="M289.707 10.6943C288.018 10.6943 286.648 9.32631 286.648 7.63878C286.648 5.95126 288.018 4.58325 289.707 4.58325C291.397 4.58325 292.766 5.95126 292.766 7.63878C292.766 9.32631 291.397 10.6943 289.707 10.6943Z" fill="#F86B75"/>
<path d="M281.141 10.6943C279.452 10.6943 278.082 9.32631 278.082 7.63878C278.082 5.95126 279.452 4.58325 281.141 4.58325C282.831 4.58325 284.201 5.95126 284.201 7.63878C284.201 9.32631 282.831 10.6943 281.141 10.6943Z" fill="#FAD375"/>
<path d="M272.576 10.6943C270.886 10.6943 269.516 9.32631 269.516 7.63878C269.516 5.95126 270.886 4.58325 272.576 4.58325C274.265 4.58325 275.635 5.95126 275.635 7.63878C275.635 9.32631 274.265 10.6943 272.576 10.6943Z" fill="#8BCC55"/>
<path d="M288.484 8.86106C286.794 8.86106 285.424 7.49306 285.424 5.80553C285.424 4.11801 286.794 2.75 288.484 2.75C290.173 2.75 291.543 4.11801 291.543 5.80553C291.543 7.49306 290.173 8.86106 288.484 8.86106Z" stroke="#3F3D56" stroke-miterlimit="10"/>
<path d="M279.918 8.86106C278.228 8.86106 276.859 7.49306 276.859 5.80553C276.859 4.11801 278.228 2.75 279.918 2.75C281.607 2.75 282.977 4.11801 282.977 5.80553C282.977 7.49306 281.607 8.86106 279.918 8.86106Z" stroke="#3F3D56" stroke-miterlimit="10"/>
<path d="M271.352 8.86106C269.662 8.86106 268.293 7.49306 268.293 5.80553C268.293 4.11801 269.662 2.75 271.352 2.75C273.042 2.75 274.411 4.11801 274.411 5.80553C274.411 7.49306 273.042 8.86106 271.352 8.86106Z" stroke="#3F3D56" stroke-miterlimit="10"/>
<path d="M55.0658 56.2218H237.395V175.999H55.0658V56.2218Z" stroke="#3F3D56" stroke-miterlimit="10"/>
<path d="M58.125 202.276H91.7763V211.443H58.125V202.276Z" fill="#6C63FF"/>
<path d="M55.0658 199.832H88.7171V208.998H55.0658V199.832Z" stroke="#3F3D56" stroke-miterlimit="10"/>
<path d="M144.156 126.222L158.234 111.73C158.541 111.421 158.908 111.177 159.313 111.015C159.718 110.853 160.152 110.775 160.588 110.786H160.63C161.066 110.775 161.499 110.853 161.904 111.015C162.309 111.177 162.676 111.421 162.983 111.73L177.061 126.222C177.372 126.512 177.62 126.863 177.789 127.253C177.959 127.643 178.046 128.063 178.046 128.488C178.046 128.913 177.959 129.334 177.789 129.724C177.62 130.114 177.372 130.465 177.061 130.755C176.417 131.357 175.568 131.691 174.687 131.691C173.805 131.691 172.956 131.357 172.312 130.755L163.971 122.045V144.501C163.932 145.366 163.561 146.182 162.934 146.78C162.308 147.378 161.475 147.712 160.609 147.712C159.742 147.712 158.909 147.378 158.283 146.78C157.656 146.182 157.285 145.366 157.247 144.501V122.045L148.905 130.755C148.261 131.357 147.412 131.691 146.53 131.691C145.649 131.691 144.8 131.357 144.156 130.755C143.845 130.465 143.597 130.114 143.428 129.724C143.258 129.334 143.171 128.913 143.171 128.488C143.171 128.063 143.258 127.643 143.428 127.253C143.597 126.863 143.845 126.512 144.156 126.222V126.222Z" fill="#6C63FF"/>
</g>
<defs>
<clipPath id="clip0">
<rect width="465" height="424" fill="white" transform="matrix(-1 0 0 1 465 0)"/>
</clipPath>
</defs>
</svg>
